<svg
    xmlns="http://www.w3.org/2000/svg"
    viewBox="0 0 240 240"
    width="240"
    height="240">
    <defs>
        <radialGradient id="skinGradient" cx="50%" cy="50%" r="50%" fx="50%" fy="50%">
            <stop offset="0%" style="stop-color:#FDE8D0; stop-opacity:1" />
            <stop offset="100%" style="stop-color:#F5C99B; stop-opacity:1" />
        </radialGradient>
        <linearGradient id="hairGradient" x1="0%" y1="0%" x2="0%" y2="100%">
            <stop offset="0%" style="stop-color:#3A3A3A; stop-opacity:1" />
            <stop offset="100%" style="stop-color:#1E1E1E; stop-opacity:1" />
        </linearGradient>
        <linearGradient id="shirtGradient" x1="0%" y1="0%" x2="0%" y2="100%">
            <stop offset="0%" style="stop-color:#2DD4BF; stop-opacity:1" />
            <stop offset="100%" style="stop-color:#14B8A6; stop-opacity:1" />
        </linearGradient>
        <linearGradient id="shirtMinisterGradient" x1="0%" y1="0%" x2="0%" y2="100%">
            <stop offset="0%" style="stop-color:#1E3A5F; stop-opacity:1" />
            <stop offset="100%" style="stop-color:#2D4A7C; stop-opacity:1" />
        </linearGradient>
        <linearGradient id="suitGradient" x1="0%" y1="0%" x2="0%" y2="100%">
            <stop offset="0%" style="stop-color:#7C2D5F; stop-opacity:1" />
            <stop offset="100%" style="stop-color:#9F3D7A; stop-opacity:1" />
        </linearGradient>
        <linearGradient id="tieGradient" x1="0%" y1="0%" x2="0%" y2="100%">
            <stop offset="0%" style="stop-color:#7C2D5F; stop-opacity:1" />
            <stop offset="100%" style="stop-color:#9F3D7A; stop-opacity:1" />
        </linearGradient>
        <radialGradient id="bgGradient" cx="50%" cy="50%" r="50%" fx="50%" fy="50%">
            <stop offset="0%" style="stop-color:#E8EDF2; stop-opacity:1" />
            <stop offset="100%" style="stop-color:#D0D8E8; stop-opacity:1" />
        </radialGradient>
    </defs>
    <rect width="240" height="240" rx="60" ry="60" fill="url(#bgGradient)"/>
    <path d="M120,195c-40,0-72-32-72-72s32-72,72-72s72,32,72,72S160,195,120,195z" fill="#fff"/>
    <path d="M120,195c-40,0-72-32-72-72s32-72,72-72s72,32,72,72S160,195,120,195z" fill="url(#skinGradient)"/>
    <ellipse cx="120" cy="155" rx="16" ry="16" fill="#fff"/>
    <ellipse cx="120" cy="155" rx="10" ry="10" fill="url(#hairGradient)"/>
    <ellipse cx="104" cy="140" rx="4" ry="6" fill="#fff"/>
    <ellipse cx="136" cy="140" rx="4" ry="6" fill="#fff"/>
    <path d="M112 165c0-4 3-7 7-7s7 3 7 7-3 7-7 7-7-3-7-7z" fill="#333"/>
    <path d="M119 165c0-1 1-2 2-2s2 1 2 2-1 2-2 2-2-1-2-2z" fill="#fff"/>
    <circle cx="112" cy="165" r="1.5" fill="#333"/>
    <circle cx="128" cy="165" r="1.5" fill="#333"/>
    <path d="M110 170s2-1 6-1 6 1 6 1" stroke="#333" stroke-width="2" fill="none"/>
    <path d="M108 176c0-2 2-4 4-4s4 2 4 4-2 4-4 4-4-2-4-4z" fill="#333"/>
    <path d="M120 164c0 4 13 4 13 0s-6.5-6-13-6-13 2-13 6 6 6 13 6z" fill="#333"/>
    <path d="M120 180c-4 0-7-3-7-7s3-7 7-7 7 3 7 7-3 7-7 7z" fill="url(#shirtGradient)"/>
    <path d="M120 180c-4 0-7-3-7-7s3-7 7-7 7 3 7 7-3 7-7 7z" fill="#14B8A6" stroke="#2DD4BF" stroke-width="2"/>
    <path d="M120 180c-2 0-4-2-4-4s2-4 4-4 4 2 4 4-2 4-4 4z" fill="#fff"/>
    <path d="M120 180c-1 0-2-1-2-2s1-2 2-2 2 1 2 2-1 2-2 2z" fill="#14B8A6"/>
</svg>