<svg xmlns="http://www.w3.org/2000/svg" viewBox="0 0 240 240" width="240" height="240">
  <defs>
    <linearGradient id="skinGradient" x1="0%" y1="0%" x2="0%" y2="100%">
      <stop offset="0%" style="stop-color:#FDE8D0;stop-opacity:1" />
      <stop offset="100%" style="stop-color:#F5C99B;stop-opacity:1" />
    </linearGradient>
    <radialGradient id="faceGradient" cx="50%" cy="50%" r="50%">
      <stop offset="0%" style="stop-color:#FDE8D0;stop-opacity:1" />
      <stop offset="100%" style="stop-color:#F5C99B;stop-opacity:1" />
    </radialGradient>
    <linearGradient id="hairGradientYoung" x1="0%" y1="0%" x2="0%" y2="100%">
      <stop offset="0%" style="stop-color:#3A3A3A;stop-opacity:1" />
      <stop offset="100%" style="stop-color:#1E1E1E;stop-opacity:1" />
    </linearGradient>
    <linearGradient id="hairGradientMiddle" x1="0%" y1="0%" x2="0%" y2="100%">
      <stop offset="0%" style="stop-color:#6B4226;stop-opacity:1" />
      <stop offset="100%" style="stop-color:#4A3017;stop-opacity:1" />
    </linearGradient>
    <linearGradient id="hairGradientSenior" x1="0%" y1="0%" x2="0%" y2="100%">
      <stop offset="0%" style="stop-color:#9CA3AF;stop-opacity:1" />
      <stop offset="100%" style="stop-color:#7A7F8C;stop-opacity:1" />
    </linearGradient>
    <linearGradient id="clothingEcology" x1="0%" y1="0%" x2="0%" y2="100%">
      <stop offset="0%" style="stop-color:#2DD4BF;stop-opacity:1" />
      <stop offset="100%" style="stop-color:#14B8A6;stop-opacity:1" />
    </linearGradient>
    <linearGradient id="clothingSafety" x1="0%" y1="0%" x2="0%" y2="100%">
      <stop offset="0%" style="stop-color:#1E3A5F;stop-opacity:1" />
      <stop offset="100%" style="stop-color:#2D4A7C;stop-opacity:1" />
    </linearGradient>
    <linearGradient id="clothingManager" x1="0%" y1="0%" x2="0%" y2="100%">
      <stop offset="0%" style="stop-color:#7C2D5F;stop-opacity:1" />
      <stop offset="100%" style="stop-color:#9F3D7A;stop-opacity:1" />
    </linearGradient>
    <linearGradient id="tieGradient" x1="0%" y1="0%" x2="0%" y2="100%">
      <stop offset="0%" style="stop-color:#7C2D5F;stop-opacity:1" />
      <stop offset="100%" style="stop-color:#9F3D7A;stop-opacity:1" />
    </linearGradient>
  </defs>
  <rect width="240" height="240" rx="40" ry="40" fill="#E8EDF2"/>
  <g>
    <ellipse cx="120" cy="160" rx="70" ry="35" fill="url(#faceGradient)"/>
    <path d="M 70,140 Q 60,130 80,120 Q 100,110 120,120 Q 140,110 160,120 Q 180,130 170,140" fill="none" stroke="#000000" stroke-width="3"/>
    <ellipse cx="90" cy="130" rx="10" ry="15" fill="#000000"/>
    <ellipse cx="150" cy="130" rx="10" ry="15" fill="#000000"/>
    <path d="M 100,110 Q 95,105 105,100 Q 115,95 110,90 Q 105,85 100,90" fill="none" stroke="#000000" stroke-width="2"/>
    <path d="M 140,110 Q 145,105 135,100 Q 125,95 130,90 Q 135,85 140,90" fill="none" stroke="#000000" stroke-width="2"/>
    <path d="M 100,95 Q 105,90 115,95 T 130,95 T 145,95 T 150,95" fill="none" stroke="#000000" stroke-width="2"/>
    <path d="M 60,160 Q 65,155 75,160 Q 85,165 80,175 Q 75,185 60,180" fill="white"/>
    <path d="M 180,160 Q 175,155 165,160 Q 155,165 160,175 Q 165,185 180,180" fill="white"/>
    <path d="M 95,175 A 5,5 0 1 1 90,175 A 5,5 0 1 1 95,175" fill="black"/>
    <path d="M 145,175 A 5,5 0 1 1 140,175 A 5,5 0 1 1 145,175" fill="black"/>
    <path d="M 110,190 Q 115,185 125,190 T 140,190" fill="none" stroke="#000000" stroke-width="2"/>
    <path d="M 120,150 Q 117,142 123,140 Q 129,138 127,132 Q 125,126 133,126 Q 141,126 142,132 Q 140,138 146,140 Q 152,142 149,150" fill="url(#hairGradientYoung)"/>
    <path d="M 120,170 Q 112,175 120,180 Q 128,175 120,170" fill="url(#hairGradientYoung)"/>
    <rect x="50" y="180" width="140" height="60" fill="url(#clothingEcology)" />
    <path d="M 120,230 Q 110,235 130,235 Q 150,235 140,230" fill="url(#clothingEcology)"/>
  </g>
</svg>